<svg height="40" viewBox="0 0 36 40" width="36" xmlns="http://www.w3.org/2000/svg"><g fill="none"><path d="m.3075 2.79530435v2.7952174l.16521739.06243478c.09086957.03434781.17304348.07252172.1826087.0849565.00956521.01234785.08.05452175.15652174.09365219.51295652.26234781.66295652.34226087.67826087.36156522.00956521.01208697.09565217.05121737.19130434.08704347.09565218.03573912.1946087.0852174.21991305.10982609.02521739.02460869.06713043.04478259.09313043.04478259s.06791305.02060872.09313044.04591307c.02530434.02521737.11252174.07513043.19382608.11104347.08130435.03582609.14782609.07530434.14782609.08765218 0 .01234782.06260869.04321738.13913044.06843478.07652173.02521738.13913043.05652172.13913043.06956522 0 .01304347.0626087.04434782.13913043.06956522.07652174.02521738.13913044.05782606.13913044.07234781s.07826087.05243479.17391304.08417391c.09565218.03173916.17391305.0690435.17391305.08278263 0 .01373912.05478261.04478259.12173913.06904346.0669565.02417391.12173913.05704347.12173913.07304347 0 .01591307.07826087.05713044.17391303.09156522.09565219.03434785.17391306.07260872.17391306.08486956 0 .01226088.06260869.0430435.13913044.06826088.07652172.02521741.13913044.05747828.13913044.07165219 0 .0141739.07826084.05382609.17391303.08826087.09565219.03434781.17391303.07504347.17391303.09043478 0 .01539128.02139131.02791303.04747828.02791303.02608694 0 .08608694.03034785.13330435.06756522.04721737.03713044.15504346.09469566.23947825.128.08452175.03330435.16147828.07017391.17104346.08208697.02973916.03686956.81495654.41826088.8608696.41808694.02391303 0 .04347825.01547828.04347825.03452175 0 .01895653.12130434.09243478.26956522.16313044.14826087.07069565.27739131.1381739.28695653.15.00956522.01173912.0721739.04313043.1391304.06965215.06695654.02652175.12956522.05834785.13913044.07078263s.09173916.05060869.18260872.08495653c.09086956.03434781.16521738.074.16521738.08826084 0 .01417394.05086956.04643478.11304346.07156522.06217394.02513044.1208696.0558261.13043482.06826088.00956518.01243478.09173912.05060868.18260868.08495653.09086957.03434781.16521738.07339131.16521738.08686956s.06260872.04521741.13913044.07043478c.07652175.02521741.13913043.0578261.13913043.07234781 0 .01452175.07826088.05243482.17391307.08417394.09565215.03173913.17391303.06834781.17391303.08130435 0 .01286956.05086956.04556521.11304347.07260868.0621739.02704347.12086956.05956522.13043478.07234785.02391306.03165215.54278262.27808689.58565219.27808689.01904346 0 .03982609.0123479.04626087.0274783.00634781.0150435.13678259.0890435.28982606.1643478.1530435.0752174.28608697.1461739.29565219.1575653.03008697.0357391.5376522.2766956.5829565.2766956.0237392 0 .0431305.0144348.0431305.032087 0 .0176521.0547826.0501739.1217391.0722608.0669565.022087.1217391.0514783.1217391.0653044 0 .0137391.0586957.0458261.1304348.0711304.0717391.0253044.153913.0652174.1826087.0886087.0286956.0233913.1773913.1029565.3304348.1767826.1530435.0737391.2860869.1443478.2956522.1567826.0095652.0124348.0760869.0417392.1478261.0651305.0717391.0233913.1304347.0544347.1304347.0690435 0 .0146086.0618261.0468695.1373044.071826.0755652.0249565.1443478.0634783.1528695.0857392.0085218.0222608.0797392.0616521.1582609.0875652.0786087.025913.1428696.0577391.1428696.0707826s.0626087.0443478.1391304.0695652.1391305.0574783.1391305.0716522.0782608.0538261.173913.0882608c.0956522.0343479.173913.0726088.173913.0848696 0 .0122609.0626087.0430435.1391305.0682609.0765217.0252174.1391304.0566956.1391304.0698261 0 .0132174.0665217.0534782.1478261.0894782.0813043.036087.1672174.084087.1909565.1067826.0237391.0226957.0902609.0516522.1478261.0642609.0575652.0126957.1046956.0358261.1046956.0515652 0 .0156522.0782609.0566087.1739131.0910435.0956522.0343478.173913.0744348.173913.0890435s.0626087.0453043.1391305.0681739c.0765217.0229565.1391304.0518261.1391304.0642609 0 .0124347.0665218.0516521.1478261.0870435.0813043.0354782.1556522.0748695.1652174.0875652.0095652.0126087.1269565.0754782.2608695.1396521.1339131.0641739.2513044.1270435.2608696.1398261.0095652.0126957.0917392.0511305.1826087.0854783.0908696.0343478.1652174.0746956.1652174.0897391 0 .0149565.0459131.0373044.1019131.0496522.0560869.0123478.119913.044.141913.0705217.021913.0264348.1091304.0745218.1937391.1067826.0845218.0323479.1537391.0697392.1537391.0832174 0 .0134783.0626088.0452174.1391305.0704348s.1391304.056.1391304.0682609c0 .0122608.0782609.0505217.1739131.0848696.0956521.0344347.173913.0740869.173913.0882608s.0618261.046087.1373043.0710435c.0755653.0249565.1443479.0634782.1528696.0857391.0085218.0222609.0797391.0616522.1582609.0875652.0786087.0259131.1428695.0577392.1428695.0707826 0 .0130435.0626087.0443479.1391305.0695653.0765217.0252174.1391304.0574782.1391304.0716521s.0782609.0538261.1739131.0882609c.0956521.0343478.173913.0726087.173913.0848696s.0626087.0430434.1391305.0682609c.0765217.0252173.1391304.0572173.1391304.0709565 0 .0288695.4904348.2768695.5475652.2768695.0208696 0 .0431304.0126957.0495652.0282609.0146957.0358261.5192174.2847826.5771304.2847826.0237392 0 .0431305.0130435.0431305.0290435s.183913.1212174.4086956.233913c.2247827.1126957.4165218.214174.426087.2254783.0095652.0113913.0869565.0480869.171913.0815652.0849566.0334783.1969566.0911305.2488696.128087.0518261.0368695.1114783.0671304.1324348.0671304s.0380869.0125217.0380869.0279131c0 .0153912.0782609.0560869.1739131.0904347.0956522.0344348.173913.074087.173913.0882609s.0626087.0464348.1391305.0716522c.0765217.0252174.1391304.0565217.1391304.0695652s.0626087.0443478.1391304.0695652c.0765218.0252174.1391305.0569565.1391305.0704348 0 .0134782.0704347.0513913.1565217.0842609.086087.0328695.1565218.0734782.1565218.0902608s.0626086.0493044.1391304.0721739c.0765217.0229566.1391304.0533044.1391304.0674783s.0782609.0539131.1739131.0883478c.0956521.0343478.173913.0744348.173913.0890435s.0626087.0453043.1391304.0681739c.0765218.0229565.1391305.0536522.1391305.0682609s.0549565.0446956.1220869.0668695c.0671305.022174.1414783.0596522.1652174.0832175.0499131.0496521.5599131.2993043.6113913.2993043.0190435 0 .0398261.0130435.0462609.0288696.0134782.0336521.5272174.2841739.5827826.2841739.0206087 0 .0374783.0142608.0374783.0316522 0 .0174782.183913.1227825.4086956.2341739.2247826.1113043.4165217.2122608.426087.2242608.0095652.012.0760869.0428696.1478261.0685218.0717391.0256521.1304347.056.1304347.0673043 0 .0113913.0704348.0497392.1565218.0852174.0860869.0355652.1565217.0753913.1565217.0885218 0 .0132173.0626087.0446956.1391304.069913.0765218.0252174.1391305.0578261.1391305.0723478s.0782609.0524348.173913.0841739c.0956522.0317392.1739131.0696522.1739131.0841739 0 .0145218.0626087.0471305.1391304.0723479s.1391305.0566956.1391305.069913c0 .0131305.0704347.0529565.1565217.0885217.0860869.0354783.1565217.0744348.1565217.0866088 0 .0121739.0626087.0427825.1391305.068.0765217.0252173.1391304.0569565.1391304.0704347 0 .0134783.0743478.0525218.1652174.0868696.0908695.0343478.1730435.0725217.1826087.0849565s.0721739.0446087.1391304.0714783c.0669565.0268695.1373913.0620869.1565217.0781739.0412175.0346087.1217392.0773043.6865218.3646087.2351304.1195652.4467826.2173913.4704348.2173913.0236521 0 .0430434.0156522.0430434.0347826 0 .0411304.1628696.0473913.1797392.0069565.0063478-.0153043.1211304-.0883478.2550435-.1622609.133913-.073913.2513043-.1444347.2608695-.1566956.0095653-.0123478.0721739-.0434783.1391305-.0692174.0669565-.0258261.1373913-.0655652.1565217-.0883478s.0934783-.0626957.1652174-.0886087c.0717391-.0259131.1304348-.0604348.1304348-.0766957 0-.0162608.0469565-.046.1043478-.066s.1043478-.0473043.1043478-.0606087c0-.0133043.0704348-.0533043.1565218-.0887826.0860869-.0355652.1565217-.0749565.1565217-.0876522 0-.0126086.0547825-.0445217.1217391-.0707825.0669565-.0262609.121739-.0574783.121739-.0693914 0-.0118261.0665219-.0506086.1478263-.086.0813044-.0354782.1556522-.075913.1652175-.0897391.009565-.013913.0721737-.0506956.1391303-.0816522.0669566-.0310434.2-.1021739.2956522-.158.0956522-.055913.2126956-.1193913.2601737-.1410434.0473916-.0216522.0943478-.0506087.1043478-.0642609.0099132-.0136522.0846088-.0541739.1659132-.090087.0813043-.035826.1478262-.0767826.1478262-.0908695 0-.014174.038-.0353044.0845216-.0469565.0465219-.0116522.105739-.0425218.131739-.0684348.026-.026.1171307-.0813044.202435-.1228696.2240869-.1090435.3613913-.1850435.3813044-.2110435.009565-.0125217.0682606-.0433043.1304347-.0684348.0621741-.0251304.1130434-.0582608.1130434-.0734782 0-.0153044.0768697-.0533044.1708697-.0845218.094-.0312173.1787825-.0774782.1885216-.1026956.0096522-.0252174.0617394-.0569565.1157394-.0705217.0539128-.0135653.1060868-.0366088.1158259-.0513044s.0645219-.0487826.1216522-.0757391c.1275653-.0602609.1582609-.1673913.0556522-.1942609-.0399131-.0104348-.0726088-.0312174-.0726088-.0461739 0-.0150435-.0782609-.0553913-.1739131-.0898261-.0956522-.0343478-.1739128-.0739131-.1739128-.0877391 0-.0138261-.0586956-.0445218-.130435-.068174-.0717391-.0236521-.1460869-.0615652-.1652172-.0842608-.0191306-.0227826-.0895653-.0624348-.1565219-.0882609-.0669565-.0257391-.1295653-.0568696-.1391303-.0691304-.0255653-.0326957-.5446087-.2773044-.5886087-.2773044-.0206088 0-.0374785-.0144348-.0374785-.0320869 0-.0176522-.0547825-.0501739-.121739-.0722609-.0669566-.022087-.1217391-.0533913-.1217391-.0694782 0-.016174-.0462609-.0394783-.1026956-.0519131-.0565219-.0124348-.1386956-.05-.1826088-.0836522-.044-.0335652-.267739-.1534782-.4973043-.2665217-.2295654-.1129565-.4252172-.2144348-.4347825-.2253913-.0095654-.0110435-.0721741-.0417392-.1391307-.0682609-.0669562-.0265217-.129565-.0583478-.1391303-.0707826s-.0917391-.0506087-.1826087-.0849565c-.0908695-.0343478-.1652173-.0730435-.1652173-.086s-.0547827-.0450435-.1217392-.0713044c-.0669565-.0262608-.1217391-.0592173-.1217391-.0733043 0-.014-.0782609-.0514783-.1739131-.0832174-.0956521-.0317391-.173913-.0696522-.173913-.0841739s-.0626087-.0471305-.1391304-.0723478c-.0765218-.0252174-.1391305-.0578261-.1391305-.0723479 0-.0145217-.0782608-.0524348-.173913-.0841739s-.1739131-.0696521-.1739131-.0841739c0-.0145217-.0626086-.0471304-.1391304-.0723478-.0765217-.0252174-.1391304-.0578261-.1391304-.0724348s-.0586957-.0451304-.1304348-.0678261c-.0717391-.0226956-.146087-.059913-.1652174-.0826087-.0191304-.0226956-.0895652-.0631304-.1565217-.0898261-.0669566-.0266956-.1295653-.0586087-.1391305-.0708695-.0245217-.0314783-.5438261-.2773044-.5856522-.2773044-.0190434 0-.039826-.0130435-.0462608-.0288696-.0134783-.0336521-.5272174-.2841739-.5827826-.2841739-.0206087 0-.0374783-.0146087-.0374783-.0324348 0-.017826-.0352174-.0434782-.0782609-.0569565-.0430434-.0134782-.1144347-.0527826-.1586956-.0873043s-.1381739-.0816522-.2086957-.1046087c-.0705217-.0230435-.1360869-.0523478-.1456521-.0653044-.0268696-.0361739-.5342609-.2794782-.5829566-.2794782-.0237391 0-.0431304-.0144348-.0431304-.032087s-.0547826-.0501739-.1217391-.0722609c-.0669566-.0220869-.1217391-.0529565-.1217391-.0685217s-.0430435-.0387826-.0956522-.0515652-.1506087-.0592174-.2178261-.1031304c-.0672174-.044-.1572174-.0910435-.2-.1046087-.0427826-.0135653-.0778261-.0393044-.0778261-.0571305 0-.017826-.0158261-.0324348-.0352174-.0324348-.0413043 0-.5653913-.2466956-.5908696-.2781739-.0095652-.0117391-.0721739-.0431304-.1391304-.0696521-.0669565-.0265218-.1295652-.0583479-.1391304-.0707827-.0095653-.0124347-.0917392-.0506086-.1826087-.0849565-.0908696-.0343478-.1652174-.0727826-.1652174-.0854782 0-.0126957-.0586957-.0442609-.1304348-.0701739-.0717391-.0259131-.1460869-.0665218-.1652174-.090087-.0191304-.0236522-.0934783-.0616522-.1652174-.0843478-.0717391-.0226957-.1304348-.0532174-.1304348-.0678261s-.0626087-.0472174-.1391304-.0724348-.1391304-.0578261-.1391304-.0723478c0-.0145218-.0782609-.0524348-.1739131-.0841739-.0956522-.0317392-.173913-.0696522-.173913-.084174 0-.0145217-.0626087-.0471304-.1391304-.0723478-.0765218-.0252174-.1391305-.0584347-.1391305-.0737391s-.0626087-.0466087-.1391304-.0694783c-.0765218-.0229565-.1391305-.0533043-.1391305-.0674782s-.0782608-.0539131-.173913-.0883479c-.0956522-.0343478-.1739131-.0734782-.1739131-.0868695 0-.0263478-.5001739-.2749565-.5532173-.2749565-.0177392 0-.0374783-.0130435-.0439131-.0288696-.0134782-.0336522-.5272174-.2841739-.5827826-.2841739-.0206087 0-.0374783-.0150435-.0374783-.0333913 0-.0183479-.0626087-.0521739-.1391304-.0750435-.0765217-.0229565-.1391304-.0536522-.1391304-.0682609s-.0549565-.0446956-.122087-.0668695c-.0671304-.022174-.1414782-.0593913-.1652174-.0827826-.0561739-.0553044-.5525217-.2997392-.6086956-.2997392-.0237392 0-.0431304-.0144347-.0431304-.0320869s-.0547827-.0501739-.1217392-.07226091c-.0669565-.02208694-.1217391-.05460869-.1217391-.07226088 0-.01765215-.0184348-.03208693-.0408696-.03208693-.0460869 0-.5583478-.24539132-.5852174-.28034785-.0095652-.01243478-.0760869-.04173912-.1478261-.06513044-.0717391-.02339128-.1304347-.05565215-.1304347-.07173912 0-.01608694-.0704348-.05608694-.1565218-.0889565-.0860869-.03286956-.1565217-.07078263-.1565217-.08426088 0-.01347828-.0626087-.0452174-.1391304-.07043478-.0765218-.0252174-.1391305-.056-.1391305-.06826087 0-.01226088-.0782609-.05052175-.173913-.08486956-.0956522-.03443479-.1739131-.07408697-.1739131-.08826088s-.0626087-.04643478-.1391304-.07165219c-.0765218-.02521737-.1391305-.056-.1391305-.06826084 0-.01226088-.0782608-.05052175-.173913-.08486956-.0956522-.03443482-.173913-.07347828-.173913-.0868696 0-.01339128-.0547826-.04408693-.1217392-.06834781-.0669565-.02417391-.1217391-.05739131-.1217391-.07373912 0-.01634785-.0782609-.05573913-.173913-.08747829-.0956522-.03173912-.1739131-.06965215-.1739131-.0841739 0-.01452172-.0626087-.04713044-.1391304-.07234781-.0765217-.02521741-.1391305-.0578261-.1391305-.07243479 0-.01460868-.0586956-.04539131-.1304347-.06843478-.0717392-.02295653-.1539131-.06139131-.1826087-.08530434-.0286957-.024-.1108696-.06426088-.1826087-.08956522s-.1304348-.05791306-.1304348-.07243478c0-.01452175-.0626087-.04521741-.1391304-.06808697-.0765218-.02295653-.1391305-.05365219-.1391305-.06826087 0-.01460869-.0549565-.04469566-.1220869-.06686957-.0671305-.0221739-.1414783-.05965215-.1652174-.08321737-.0499131-.04965219-.5599131-.29930438-.6113913-.29930438-.0190435 0-.0398261-.01304347-.0462609-.02886956-.0134783-.03365216-.5272174-.28417391-.5827826-.28417391-.0206087 0-.0374783-.01504346-.0374783-.03339131 0-.01834781-.0626087-.0521739-.1391304-.07504347-.0765217-.02295653-.1391304-.05365215-.1391304-.06826087 0-.01460869-.0549566-.04469566-.122087-.06686956-.0671304-.02217391-.1414782-.05921738-.1652174-.08234782-.0237391-.02313043-.2935652-.166-.5996522-.31747828-.3060869-.15147825-.5643478-.28530434-.573913-.29747825-.0095652-.01208697-.0917391-.05008697-.1826087-.08443478s-.1652174-.07347825-.1652174-.08695653c0-.01347825-.0626087-.04330434-.1391304-.06626088-.0765218-.02286956-.1391305-.05347825-.1391305-.06791303s-.0704347-.05530434-.1565217-.09078259c-.0860869-.03556522-.1565217-.07539131-.1565217-.08852175 0-.01321741-.0626087-.04469566-.1391305-.06991303-.0765217-.02521741-.1391304-.056-.1391304-.06826088 0-.01226087-.0782609-.05052175-.1739131-.08486956-.0956521-.03443478-.173913-.07408697-.173913-.08826087 0-.01417391-.0626087-.04643479-.1391304-.07165219-.0765218-.02521738-.1391305-.056-.1391305-.06826088 0-.01226084-.0782608-.05052172-.173913-.08486956-.0956522-.03443478-.1739131-.07417391-.1739131-.08834781 0-.01417391-.0626087-.04452175-.13913041-.06747825-.07652171-.0228696-.1391304-.0528696-.1391304-.06652175 0-.01373913-.0508696-.04669566-.1130435-.07330435-.06217391-.02652175-.13652172-.06756521-.16521738-.09113043-.02869565-.02356522-.11086956-.06356522-.18260872-.08886957-.07173912-.02530434-.13043478-.05608696-.13043478-.06826087 0-.01226088-.06260868-.04295653-.1391304-.06817391-.07652175-.0252174-.13913044-.05747828-.13913044-.07165218 0-.01417391-.07826088-.0538261-.17391306-.08826088-.09565216-.03434781-.17391303-.07260869-.17391303-.08486956 0-.01226088-.06260869-.04304347-.13913044-.06826088-.07652175-.02521737-.13913044-.05747825-.13913044-.07165215 0-.01417391-.07826087-.0538261-.17391303-.08826088-.09565219-.03434781-.17391306-.07504347-.17391306-.09043478s-.016-.02791303-.03556522-.02791303c-.01947825 0-.0938261-.03756522-.16521738-.08347828-.07130434-.0458261-.18834784-.10373913-.26008697-.12869566-.07173912-.02486956-.13043478-.05660869-.13043478-.07034781 0-.01382609-.05869565-.04426088-.13043478-.06765219-.07173912-.02339128-.13826087-.05269562-.14782609-.06513044-.02130435-.02765215-.53443478-.28034781-.56930435-.28034781-.01373912 0-.04382609-.01634782-.06695653-.03634782-.0471304-.04086957-.35547825-.20295653-.99852172-.52495653-.23913043-.11973913-.44-.23026086-.44634784-.24556521-.00643478-.01539131-.02721737-.02791304-.04626084-.02791304-.04339132 0-.56208697-.24669566-.58565219-.27852175-.00956522-.01295652-.09521741-.05286956-.19026088-.08886956-.09504346-.03591304-.20069565-.09313044-.23478259-.12721739-.03408697-.03408696-.08539131-.06191305-.11408697-.06191305-.02869565 0-.0521739-.01252173-.0521739-.02782608 0-.01521739-.05869566-.04852174-.13043479-.07382609-.07173912-.02530435-.15391306-.06565217-.18260868-.08965217-.02869566-.024-.11086959-.06434783-.18260871-.08965218-.07173913-.02530434-.13043479-.05608695-.13043479-.06826087 0-.01226086-.06260869-.04295652-.13913043-.06817391s-.13913044-.05782609-.13913044-.07234783c0-.01452173-.07826087-.05243478-.17391304-.08417391-.09565218-.03173913-.17391304-.06965217-.17391304-.08417391s-.0626087-.04713044-.13913044-.07234783-.13913043-.05669565-.13913043-.06991304c0-.01313043-.07043479-.05295652-.15652174-.08852174-.08608696-.03547826-.15652174-.07443478-.15652174-.08660869 0-.01217392-.0626087-.04278261-.13913044-.068-.07652174-.0252174-.13913043-.05747827-.13913043-.07165218s-.07826087-.05382609-.17391304-.08826087c-.09565218-.03434783-.17391305-.0726087-.17391305-.08486956 0-.01226087-.06260869-.04304348-.13913043-.06826087-.07652174-.0252174-.13913044-.05695652-.13913044-.07043479 0-.01347826-.07434782-.05252174-.16521739-.08686956-.09086956-.03434783-.17304348-.07278261-.18260869-.08539131-.02095652-.02773913-.30043479-.13991304-.34852174-.13991304-.022 0-.03408696.99347826-.03408696 2.79530435" fill="#b3d454"/><path d="m.3075 10.4672174v2.7802608l.07826087.0244348c.04304348.0133913.08608696.034087.09565217.0458261.0272174.0334783.54539131.2822609.588.2822609.02095653 0 .03808696.014087.03808696.0313913 0 .0172174.04982609.0487826.11078261.07s.13530435.0593044.16521739.0846087.10921739.0675652.17617391.093913c.06695652.0263479.13739131.0603479.15652174.0754783.03156522.0249565.45704348.244 1.63478261.8415652.22956521.1164348.4252174.2204348.43478261.2311305.00956522.0106087.07217391.0410434.13913044.0675652.0669565.0265217.12956522.058.13913044.07.00956522.011913.08773912.0494782.17382606.0833913.086.033913.16426088.0730435.17391306.0871304.00956522.014.14269566.0868696.29573913.162s.28608697.146087.29565219.1577391c.00956522.0117392.07608693.0422609.14782606.0679131.07173916.0256521.13043478.0575652.13043478.0709565s.07826088.0524348.17391306.0868696c.09565216.0343478.17391303.0726087.17391303.0848695 0 .0122609.06260869.0430435.13913044.0682609s.13913044.0566956.13913044.0698261c0 .0132174.06652175.0534783.14782609.0894783.08130435.0360869.16721738.0840869.1909565.1067826.02373916.0226956.09026088.0516521.1478261.0642608.05756522.0126957.10469565.0358261.10469565.0515653 0 .0156521.07826088.0566086.17391307.0910434.09565215.0343479.17391303.0739131.17391303.0877391 0 .0138261.05869565.0443479.13043478.0677392.07173912.0233913.13826087.0541739.14782609.0683478s.07217391.0515652.13913044.0830435c.0669565.0313913.46608694.2352174.8869565.4528695.42086956.2175653.96086956.4948696 1.2.616.23913044.1212175.44260872.2293914.45217394.2404348.00956522.0110435.08773912.0477392.17382606.0816522.08600005.033913.16426085.071913.17391305.0845218.0095652.0126087.2053044.1168695.4348696.2316521s.4252174.2182609.4347826.2299131c.0095652.0116521.0760869.0421739.1478261.067826.0717391.0256522.1304347.0557392.1304347.0667827 0 .0111304.0782609.0505217.1739131.0876521.0956522.0371305.173913.0796522.173913.0946087s.0198261.0271305.044087.0271305.0986087.0362608.1652174.0805217c.0666087.0443478.175913.1022609.2428695.1287826.0669566.0264348.1988696.0932174.2932175.1482609.0942608.0551304.2351304.1252174.3130434.1558261.0778261.0306956.1493913.065913.1589566.0784347.0095652.0125218.1413912.082.2928695.1543479.1514783.0724348.2923478.1458261.3130435.1631304.0387826.0325217 1.0068695.5286087 2.0723478 1.062.3347826.1676522.6165217.3130435.626087.3232174.0095652.0101739.2443478.1345218.5217391.2763478.2773913.1418261.5904348.302087.6956522.356087.1052174.054087.2108695.0984348.2347826.0986956.023913.0002609.0434783.0145218.0434783.0318261 0 .0172174.049826.0487826.1107825.07.0609566.0212174.1353044.0593044.1652175.0846087.029913.0253044.1092173.0673044.1761739.0932174.0669565.026.1295652.0569565.1391304.0686957.0244348.0301739.5486957.2781739.588.2781739.0177391 0 .0374782.0120869.043913.0267826.0063479.0147826.1367827.0891304.2898261.1652174.1530435.0761739.286087.1462609.2956522.1558261s.2052174.1113043.4347826.2260869.4252174.2173913.4347826.228087c.0095652.0106087.0721739.0410435.1391304.0675652.0669566.0265217.1295653.0569565.1391305.0675652.0095652.0106957.3617391.1915652.7826087.402s.7730435.3904348.7826087.4c.0650434.0650435.532.2782609.6093913.2782609.0850435 0 .2344348-.0747826.7773043-.3888696.0886087-.0513043.1924348-.1106956.2306957-.131913.0382608-.0213044.1008696-.0578261.1391304-.0811305.0382609-.0233043.2886957-.1662608.5565217-.3177391.2678261-.1514782.4947827-.2852174.5043479-.2971304.0095652-.0119131.0721739-.0488696.1391304-.082087s.1843478-.0994782.2608696-.1472174c.0765217-.0477391.19-.109913.2521739-.1381739.0621739-.0283478.1130435-.0637391.1130435-.0787826s.0546087-.0470435.1213913-.0712174c.0666956-.0241739.1410434-.0625217.1652174-.0852174.0240869-.0227826.1051304-.0726956.1800869-.1109565.3095652-.1580869.3808696-.1991304.428-.2461739.0271305-.0272174.0706087-.0494783.0966087-.0494783s.0679131-.0205217.0931304-.0456522c.0253044-.0250434.1633914-.1072173.3068696-.1826086.1434783-.0753044.2686957-.146087.2782609-.1571305.0095652-.0111304.1307826-.0815652.2693043-.1565217.2626087-.142087.3193044-.2325217.1741739-.2778261-.0430434-.0133913-.0860869-.0346087-.0956521-.0469565-.0095652-.0124348-.1426087-.0846957-.2956522-.1605218-.1530435-.075913-.2860869-.1465217-.2956522-.1568695-.0095652-.0103478-.1426087-.0824348-.2956522-.1601739-.6990434-.3549566-1.115826-.5715653-1.147826-.5964348-.0191305-.0149566-.0895653-.0491305-.1565218-.076-.0669565-.0268696-.1295652-.0590435-.1391304-.0714783s-.0917391-.0506087-.1826087-.0849565-.1652174-.0749565-.1652174-.0901739c0-.0153044-.0547826-.0476522-.1217391-.0718261-.0669566-.0242609-.1217391-.0566087-.1217391-.0718261 0-.0153043-.0163479-.0278261-.0364348-.0278261-.0391305 0-.5607827-.248-.5896522-.2803478-.0278261-.0311304-.552087-.2761739-.5908696-.2761739-.0193913 0-.0352174-.0123479-.0352174-.0275652 0-.0151305-.0508695-.0521739-.1130435-.0822609-.0621739-.0301739-.1834782-.0886957-.2695652-.1302609-.0860869-.0414782-.18-.0896521-.2086956-.1070434-.1112174-.0673044-.5573913-.2789566-.588-.2789566-.0177392 0-.0374783-.0130434-.0439131-.0288695-.0134782-.0336522-.5272174-.2841739-.5827826-.2841739-.0206087 0-.0374782-.014087-.0374782-.0313914 0-.0172173-.0498261-.0487826-.1107826-.07-.0609566-.0212173-.1353044-.0593043-.1652174-.0846086-.0299131-.0253044-.1092174-.0673914-.1761739-.0934783-.0669566-.0261739-.1988696-.0926087-.2932174-.1476522-.0942609-.0551304-.2351305-.1252174-.3130435-.1558261-.0778261-.0306956-.1493913-.0652174-.1589565-.0766956-.0095653-.0115653-.1269565-.0752174-.2608696-.1415653-.133913-.0662608-.2486957-.1322608-.2550435-.1466086-.0064348-.0143479-.0284348-.026087-.0490434-.026087-.0393914 0-.5529566-.2469565-.5828696-.2801739-.0095652-.0106957-.0721739-.0406957-.1391304-.0666957-.0669566-.025913-.1452175-.066-.1739131-.0890434-.0286957-.0229566-.3182609-.1725218-.6434783-.3323479-.3252174-.159913-.5991304-.3006087-.6086956-.3127826-.0095652-.0122609-.076087-.0432174-.1478261-.0688695-.0717391-.0256522-.1304348-.0566957-.1304348-.0688696 0-.0122609-.0626087-.0429565-.1391304-.0681739s-.1391305-.0569565-.1391305-.0704348-.0743478-.0525217-.1652173-.0868696c-.0908696-.0343478-.1730435-.0725217-.1826087-.0849565s-.072174-.0442609-.1391305-.0707826-.1295652-.058-.1391304-.07c-.0095652-.011913-.3617391-.1928696-.7826087-.401913-.4208696-.2091305-.7730435-.3898261-.7826087-.4014783s-.0760869-.0421739-.1478261-.0678261c-.0717391-.0256522-.1304348-.0557391-.1304348-.0667826 0-.0111304-.0782608-.0505217-.173913-.0876522-.0956522-.0371304-.173913-.0785217-.173913-.091913 0-.0134783-.0586957-.0435652-.1304348-.0669565-.0717392-.0233913-.1382609-.0531305-.1478261-.066-.0095652-.0129566-.1504348-.0899131-.3130435-.1711305s-.3774783-.1915652-.4774783-.2451304c-.1-.0536522-.2330434-.1183478-.2956521-.1436522-.0626087-.0253043-.1216522-.0557391-.1312174-.0674782-.0244348-.0301739-.5486957-.2781739-.588-.2781739-.0177392 0-.0374783-.0130435-.0439131-.0288696-.0134782-.0336522-.5272174-.2841739-.5827826-.2841739-.0206087 0-.0374782-.0144348-.0374782-.032087s-.0547827-.0501739-.1217392-.0722609c-.0669565-.0220869-.1217391-.0546086-.1217391-.0722608s-.0202609-.032087-.0450435-.032087-.2165217-.0886087-.4260869-.1968695c-.424-.2191305-2.75000003-1.3962609-4.32886959-2.1907827-.56434785-.284-1.03391307-.5251304-1.04347829-.535913-.00956521-.0106956-.0721739-.0412174-.13913043-.0677391-.0669565-.0265218-.12956522-.0583479-.13913044-.0707826-.00956522-.0124348-.09173913-.0506087-.18260869-.0849566-.09086956-.0343478-.16521737-.0727826-.16521737-.0854782 0-.0126957-.05869566-.044087-.13043478-.06973914-.07173916-.02565219-.13826088-.05765219-.1478261-.07113044-.00956522-.01339131-.31478262-.17373913-.67826087-.35626088s-.75478262-.38043478-.86956522-.43982609c-.11478261-.05930434-.22826087-.10808694-.25217392-.10834781-.02391304-.00026088-.04347826-.01547825-.04347826-.0338261 0-.01834781-.06260869-.0521739-.13913043-.07504346-.07652174-.02295654-.13913044-.05330435-.13913044-.06747829 0-.0141739-.07826087-.05391303-.17391304-.08834781-.09565217-.03434781-.17391304-.07260869-.17391304-.08486956 0-.01226088-.0626087-.04304347-.13913044-.06826088-.07652174-.02521737-.13913043-.05991303-.13913043-.07695653 0-.01704347-.04304348-.04626084-.09565218-.0649565-.05260869-.01869565-.1973913-.08678262-.32173913-.15139131-.26991304-.14008697-.69226087-.35026087-.76521739-.38078259-.02869565-.012-.13043478-.06773916-.22608695-.12373916-.09565218-.05608694-.19347827-.1029565-.21739131-.10418251-.03443478-.00181749-.04347826.57566079-.04347826 2.77792166" fill="#6ccccc"/><g fill="#04ace4"><path d="m.30802174 17.9875652c.00026087 1.4989566.012 2.7419131.02608696 2.762.01408695.020087.1507826.0979131.30382608.1730435.15304348.0750435.28608696.1458261.29565218.1572174.02895652.0344348.53678261.2766957.58.2766957.02217391 0 .04547826.0120869.05191304.0268695.00634782.0146957.12113043.0812174.25504348.1478261.13391304.0665217.25130434.1296522.26086956.1403478.00956522.0106087.07217392.0406087.13913044.0666087.06695652.0259131.14521739.0664348.17391304.09s.1773913.1022609.33043478.1748696c.15304348.0725217.28608696.1424348.29565218.1552174s.07608695.0442609.14782609.069913c.07173913.0256522.13043478.0579131.13043478.0716522s.07826087.0510435.17391306.0827826c.09565215.0317391.17391303.0690435.17391303.0827826s.05869565.046.13043478.0716522c.07173912.0256522.13826087.0566956.14782609.0690435.00956522.0122608.14260869.0844348.29565216.1602608.1530435.0759131.28617394.1483479.29573912.1609565.00965219.0126087.08791307.0506087.17391307.0845218.08608693.033913.16426087.0714782.17382609.0833913.00956522.012.07217391.0434783.13913044.07.0669565.0265217.12956522.0569565.1391304.0675652.00956522.0106957.14260872.082.29565219.1585217.15304347.0765218.28321741.15.28921741.1633044.006.0132174.06860868.0426087.1391304.0652174.07052175.0226087.15165219.0600869.18034785.0832174.02869565.0231304.10695653.0633043.17391303.0892174.06695653.026.12956522.0570434.13913044.0690434.02869565.0359131.53626087.2778261.58295653.2778261.02373912 0 .04313044.0146087.04313044.0324348s.03521737.0434783.07826087.0569566c.04304347.0134782.11443478.0527825.15869566.0873043.04426084.0345217.1381739.0816522.20869562.1046087.07052175.0230435.13608697.0523478.14565219.0653043.02686956.0361739.53426087.2794783.58295653.2794783.02373913 0 .04313044.0144348.04313044.0320869 0 .0176522.05478259.050174.12173912.0722609.0669565.022087.12173913.0514783.12173913.0653044 0 .0137391.05869565.0460869.13043478.0717391.07173912.0256522.13826087.0573913.14782609.0704348s.14260869.0851304.29565216.1602608c.1530435.0751305.28313044.1473914.28913044.1606087.006.0132174.0881739.0497392.18260868.0810435.09443482.0313913.17173916.0689565.17173916.0834783 0 .0145217.06260869.0471304.13913044.0723478.07652172.0252174.1391304.0578261.1391304.0723478 0 .0145218.07826091.0524348.17391311.0841739.0956521.0317392.173913.0692175.173913.0832175 0 .0140869.0547826.0470434.1217391.0733043s.1217392.0589565.1217392.0725217c0 .0136522.0782608.0529565.173913.0873913.0956522.0343479.173913.0726087.173913.0848696s.0626088.0430435.1391305.0682609.1391304.0574782.1391304.0716522c0 .0141739.0782609.053826.1739131.0882608.0956521.0343478.173913.0726087.173913.0848696 0 .0122608.0626087.0430435.1391304.0682608.0765218.0252174.1391305.058.1391305.0727827 0 .0147826.0352174.0376521.0782609.0506956.0430434.0131305.1025217.0451305.1321739.0710435.0296521.025913.1228695.0714782.2073043.1012174.0843478.0298261.1618261.0665217.1721739.0815652.0262609.0383478.5315652.2835652.5843479.2835652.0237391 0 .0431304.0144348.0431304.032087s.0547826.0501739.1217391.0722608c.0669565.022087.1217391.052087.1217391.0666957s.0633914.0474782.1408696.0730435c.0774783.0255652.1483478.0585217.1573913.0732174.0091305.0146956.1531305.0927826.32.1734782.1669565.0806957.3113044.1575652.3208696.1707826s.0760869.0431305.1478261.0665218c.0717391.0233913.1304348.0569565.1304348.0746087 0 .0176521.0168695.0320869.0374782.0320869.042087 0 .5614783.2433913.5886087.2758261.0095652.0113913.1426087.0831305.2956522.1593913.1530434.0762609.2877391.1516522.2993043.1673913.0422609.0575652.2946957.068.3483478.0143479.0282609-.0282609.1053913-.0791305.1714783-.1129566.066-.0338261.1278261-.0711304.1373913-.0827826s.0721739-.0493913.1391304-.0838261c.2566957-.132.3310435-.1751304.3490435-.2022608.0102609-.0154783.0728696-.0527827.1391305-.0828696.0662608-.0301739.1909565-.1004348.2770434-.156087.086087-.0556521.2191305-.1338261.2956522-.1737391.2646087-.137913.3474783-.1866087.3906957-.229913.023913-.0239131.0983478-.0615652.1654782-.0837392.0671305-.0221739.122087-.051826.122087-.065913s.0508695-.0523478.1130435-.0850435c.0621739-.0326087.1913043-.1048695.2869565-.1605217s.2126956-.1188696.2601739-.1405218c.0473913-.0216521.0943478-.0522608.1043478-.067913.0171305-.0269565.0848696-.0652174.4035652-.228.0749566-.0382609.1487826-.0891305.164087-.1130435s.0493913-.0434783.0757391-.0434783c.0264348 0 .0686957-.0201739.0939131-.0447826.0253043-.0246956.1086087-.073913.1851304-.1094782.0765218-.0355652.1469565-.0741739.1565218-.0856522.0257391-.0310435.2047825-.1350435.3826086-.2223478.086087-.0422609.1761739-.0953913.2001739-.118087.024087-.0226087.0749566-.0511304.1130435-.0632174.038174-.0120869.0693913-.0366087.0693913-.0544348 0-.017826.0234783-.0324347.0521739-.0324347.078087 0 .0628696-.0806957-.0260869-.138174-.1383478-.0894782-.5250435-.2792173-.5690435-.2792173-.0233913 0-.0477391-.0126957-.0541739-.0282609-.0146957-.0358261-.5192174-.2847826-.5771304-.2847826-.0237392 0-.0431305-.0144348-.0431305-.032087s-.0547826-.0501739-.1217391-.0722608c-.0669565-.022087-.1217391-.0526957-.1217391-.068 0-.0153914-.0508696-.048-.1130435-.0726087s-.1365218-.0637392-.1652174-.0869566c-.0286957-.0231304-.1108696-.0628695-.1826087-.0881739-.0717391-.0253043-.1304348-.0560869-.1304348-.0682608 0-.0122609-.0626087-.0429566-.1391304-.0681739-.0765218-.0252175-.1391305-.0578261-.1391305-.0723479 0-.0145217-.0782608-.0524348-.173913-.0841739s-.173913-.0696522-.173913-.0841739c0-.0145218-.0626087-.0471304-.1391305-.0723478-.0765217-.0252174-.1391304-.0578261-.1391304-.0723479 0-.0145217-.0773044-.0520869-.1717391-.0834782-.0944348-.0313044-.1766087-.0678261-.1826087-.0810435s-.136087-.0866087-.2891305-.1631304c-.1530434-.0765218-.2860869-.1486957-.2956521-.1603479-.0095652-.0116521-.076087-.0421739-.1478261-.0678261-.0717391-.0256521-.1304348-.0575652-.1304348-.0709565s-.0782609-.0524348-.1739131-.0868695c-.0956521-.0343479-.173913-.0726087-.173913-.0848696s-.0626087-.0430435-.1391304-.0682609c-.0765218-.0252174-.1391305-.057826-.1391305-.0724348 0-.0146087-.0586956-.0453912-.1304348-.0684347-.0717391-.0229565-.153913-.060087-.1826086-.0824348-.0286957-.0222609-.0991305-.0633044-.1565218-.0912174-.0573913-.0278261-.1121739-.0593913-.1217391-.070087-.0277391-.0311304-.552-.2762608-.5908696-.2762608-.0193913 0-.0352174-.0133044-.0352174-.0294783 0-.0302609-.2747826-.1576522-.3217391-.1491304-.0143478.0026087-.0260869-.0103478-.0260869-.0286957 0-.0183478-.0626088-.0521739-.1391305-.0750435-.0765217-.0229565-.1391304-.0536521-.1391304-.0682608s-.0547826-.0446957-.1217391-.0667826c-.0669566-.022087-.1217392-.0513913-.1217392-.0650435 0-.0137392-.0860869-.0541739-.1913043-.0899131-.1052174-.0357391-.1913044-.0753913-.1913044-.088 0-.0273913-.4942609-.2787826-.5480869-.2787826-.0206087 0-.0426087-.0123478-.0490435-.0274782-.0063478-.0151305-.3402609-.1910435-.742-.3907826-.4017392-.1998261-.7382609-.3732174-.7478261-.3852174-.0095652-.012087-.0565217-.0337392-.1043478-.048087-.0478261-.0144348-.1104348-.0457391-.1391305-.0694783-.0286956-.023826-.2556521-.1423478-.5043478-.2633913-.2486956-.1210434-.46-.2297391-.4695652-.2415652-.0095652-.0117391-.0721739-.0431304-.1391304-.0696521-.0669566-.0265218-.12956526-.0583479-.13913048-.0707827-.00956522-.0124347-.09173913-.0506087-.18260869-.0849565s-.1652174-.0733913-.1652174-.0868695c0-.0134783-.06260869-.0452174-.13913044-.0704348-.07652172-.0252174-.13913044-.0565218-.13913044-.0695652 0-.0130435-.06339128-.0446087-.14086956-.070174-.07747825-.0255652-.14860869-.0589565-.158-.0741739-.00939128-.0152173-.07513044-.0542608-.14608694-.0866087-.07095653-.0324347-.15243478-.0786956-.18113044-.1028695-.02869565-.024087-.06782609-.0467826-.08695653-.0504348-.0761739-.0146087-.18556522-.0653043-.20356522-.0944348-.01043478-.0168695-.08243478-.0516522-.15991303-.0772174-.07747828-.0255652-.14086956-.0565217-.14086956-.0687826 0-.0121739-.05869566-.0429565-.13043478-.0682609-.07173916-.0253043-.15391306-.0656521-.18260872-.0896521s-.11086956-.0643479-.18260869-.0896522c-.07173912-.0253043-.13043478-.056087-.13043478-.0682609 0-.0122609-.06260869-.0429565-.13913044-.0681739s-.13913043-.0574783-.13913043-.0716522-.07826088-.0538261-.17391304-.0882608c-.09565218-.0343479-.17391306-.0726087-.17391306-.0848696s-.06260869-.0430435-.13913044-.0682609c-.07652171-.0252174-.1391304-.0569565-.1391304-.0704348 0-.0134782-.07043478-.0513912-.15652175-.0842608s-.15652175-.0734783-.15652175-.0902609-.06260869-.0493043-.13913044-.0721739c-.07652172-.0229565-.13913044-.0533044-.13913044-.0674783s-.07826084-.053913-.17391303-.0883478c-.09565219-.0343478-.17391303-.0726087-.17391303-.0848695 0-.0122609-.06260872-.0430435-.13913044-.0682609-.07652175-.0252174-.13913044-.0574783-.13913044-.0716522s-.07826087-.0538261-.17391306-.0882609c-.09565215-.0343478-.17391303-.073913-.17391303-.0877391s-.05869566-.0443478-.13043478-.0677391c-.07173913-.0233913-.13826088-.0533044-.14782609-.0665218-.02417391-.0332174-.54252172-.2789565-.58860869-.2789565-.02060869 0-.03747825-.0150435-.03747825-.0333913s-.06260872-.0521739-.13913044-.0750435c-.07652175-.0229565-.13913044-.0533043-.13913044-.0674782 0-.014174-.07826087-.0539131-.17391306-.0883479-.09565216-.0343478-.17391303-.074-.17391303-.088 0-.0278261-.49486957-.2738261-.55086957-.2738261-.01904347 0-.03982608-.0126956-.04626086-.0282608-.01469566-.0358261-.5192174-.2847826-.57713044-.2847826-.02373913 0-.04313043-.0144348-.04313043-.032087 0-.0176521-.05478261-.0501739-.12173913-.0722609-.06695653-.0220869-.12173914-.0546087-.12173914-.0722608 0-.0176522-.01373913-.032087-.03052173-.032087-.01678261 0-.09113044-.0253043-.1652174-.0562609-.07408695-.0309565-.1407826-.0531304-.14817391-.0492173-.00747826.003913-.02313043-.0071305-.03478261-.0245218-.01173913-.0173913-.13086956-.0840869-.26478261-.1482609-.13391304-.0641739-.25130435-.1270434-.26086956-.139826-.00956522-.0126957-.09565218-.0523479-.19130435-.088174-.09565217-.0357391-.19460869-.0852173-.21991304-.109826-.02521739-.0246087-.06713044-.0447826-.09313044-.0447826s-.06991304-.0226957-.09765217-.0504348-.09147826-.0607826-.14165217-.0733913l-.09113044-.0228696z"/><path d="m34.7596741 23.0978261c-.1339132.0754782-.298261.1645217-.3652175.197913-.0669566.0334783-.1296522.0711305-.1392175.0837392-.0096522.0126087-.084.0494782-.1652172.082-.0813044.0325217-.1477394.0724347-.1477394.0886956 0 .0163479-.0626084.0484348-.1391303.0713044-.0765219.0229565-.1391303.0525217-.1391303.0657391 0 .0131304-.0665219.0534783-.1478263.0894783-.0813044.0360869-.1685215.0853913-.1938259.1096521-.0252175.0242609-.0687828.044087-.0966956.044087-.0279132 0-.0589566.0212174-.0688697.0472174-.01.025913-.0799132.0675652-.1554785.0925217-.0754781.0249565-.137304.0593913-.137304.0766087 0 .0171304-.0156522.0215652-.0347828.0097392-.0191304-.0118261-.0347825-.0067827-.0347825.0111304 0 .017913-.0508697.0532174-.1130435.0783478-.062174.0251304-.1208697.0556522-.130435.0678261-.009565.0120869-.0721737.0505217-.1391303.0853913-.0669566.0347826-.1804347.093913-.2521737.1313044-.0717394.0374782-.130435.0795652-.130435.0936521 0 .014087-.061826.0459131-.1373044.0708696-.075565.0249565-.1448694.0651304-.1541738.0892174-.0093043.0241739-.0650434.0545217-.1239131.0674782-.0588696.0129566-.1269565.0418261-.1512174.0641739-.0601739.0553044-.2192174.1491305-.4073043.240174-.086087.0417391-.1772174.0960869-.2025218.1207826-.0252173.0246956-.0593043.0448695-.0757391.0448695s-.0505217.0198261-.0757391.044087c-.0253044.0242609-.1125218.0735652-.1938261.1096522-.0813043.036-.1478261.0787826-.1478261.0950435 0 .0161739-.0172174.0294782-.0382609.0294782-.037913 0-.7282608.3757391-.7617391.4146087-.0095652.0111304-.0786957.0514783-.1536522.0897391-.2220869.1133913-.3284347.1725218-.3935652.2186957-.0874783.062-.2831304.1686956-.4353913.2373913-.0717391.0323478-.1304348.0701739-.1304348.084087 0 .013913-.0508695.045913-.1130434.0710434-.062174.0251305-.1208696.0556522-.1304348.0678261s-.1034783.0671305-.2086957.1222609-.2308695.1268696-.2792174.1593913c-.0484348.0325217-.158.0966956-.2434782.1426087-.2076522.1114782-.3257392.179913-.3468696.2010435-.0207826.0207826-.210087.1246956-.3913043.2149565-.0717392.0357391-.1304348.0785217-.1304348.0951304s-.0430435.0406957-.0956522.0535652c-.0526087.0128696-.1504348.058-.2173913.1002609-.2173913.1373913-.2590435.1617391-.3826087.2232174-.0669565.0333913-.1268696.0722609-.1332174.0863478-.0062609.0141739-.0766956.0577391-.1565217.0967826-.2170435.1063478-.3516522.1813044-.3711305.2065218-.0095652.0123478-.08.0513913-.1565217.0866956-.0765217.0353044-.1469565.0736522-.1565217.0852174-.0095653.0115652-.0643479.0444348-.1217392.0730435s-.1121739.0608695-.1217391.0715652-.1269565.0798261-.2608696.1535652c-.133913.0737391-.2513043.144087-.2608695.1562609-.0095653.0122609-.08.0511304-.1565218.0864348-.0765217.0353043-.1469565.0736521-.1565217.0852174-.0095652.0115652-.0643479.0444347-.1217391.0730435-.0573913.0286086-.112174.0611304-.1217392.0722608-.0095652.0110435-.0721739.0486087-.1391304.0834783-.0669565.0347826-.1804348.093913-.2521739.1313043-.0717392.0374783-.1304348.0803478-.1304348.0953913 0 .0151305-.038.0369565-.0845217.0486087-.0465218.0116522-.1067827.0435652-.134087.0707826-.0272174.0272174-.1026957.0750435-.1676522.106174-.1787826.0856521-.3570435.1844347-.3996521.2212173-.0208696.018087-.0913044.0602609-.1565218.0936522-.0651304.0333913-.1262609.0703478-.1358261.082s-.0721739.0489565-.1391304.0828696c-.0669565.033913-.2.1071304-.2956522.1627826s-.2126956.1188695-.2601739.1405217c-.0473913.0216522-.0943478.0522609-.1043478.0679131-.0171305.0269565-.0848696.0652174-.4035653.228-.0749565.0382608-.1451304.0815652-.156.0961739-.0181739.0243478-.115826.0800869-.3976521.2266956-.0573913.0298263-.1121739.0633044-.1217391.0744347-.0191305.0220872-.0606957.0465219-.4695653.2759131-.1530435.0859132-.2860869.166-.2956521.1780869-.0095653.012-.08.0507828-.1565218.0860872-.0765217.0353044-.1469565.0736522-.1565217.0852172-.0095652.0115653-.0643479.044435-.1217391.0730434-.0573913.0286088-.112174.0608697-.1217392.0715653-.0095652.0106957-.1269565.0798263-.2608696.1535653-.133913.0737391-.2513043.1440869-.2608695.156261-.0095652.0122606-.0721739.0494781-.1391305.0826956-.0669565.0332172-.1843478.0985216-.2608695.1451303-.0765217.0465219-.256.1499131-.3987826.2296522-.1428696.0798259-.2808696.1662609-.3067826.1921741-.0259131.0259128-.0851305.0566956-.1316522.0683478s-.0845217.0327825-.0845217.0469562c0 .0141741-.0704348.0547828-.1565218.0903478-.0860869.0354785-.1565217.0759132-.1565217.0898263s-.0312174.0352175-.0693913.0473044c-.038087.0120868-.0889566.0410434-.1130435.0642609-.1544348.1493044-.4051304.1608694-.5132174.023565-.0095652-.0121737-.0721739-.0438259-.1391304-.0703478-.0669565-.0265216-.1295653-.0569566-.1391305-.067565-.0095652-.0106956-.1424348-.082-.2953913-.1585219-.1528695-.0765219-.2987826-.1586956-.3241739-.1826087-.0254782-.0239132-.0622608-.0434782-.081913-.0434782-.0195652 0-.0803478-.0319131-.1351305-.0708696-.0546956-.0389566-.1507826-.0886957-.2134782-.1105216-.0626957-.0219131-.1299131-.0533916-.1493913-.07-.0488696-.0417394-.2321739-.1413916-.5396522-.2933916-.1434783-.0709562-.2802609-.1483478-.304-.1719128-.0237391-.0235653-.0980869-.0610434-.1652174-.0832175-.0671304-.0221737-.122087-.0521737-.122087-.0667825 0-.0146087-.0626086-.0472175-.1391304-.072435-.0765217-.0252172-.1391304-.0566956-.1391304-.0698259 0-.0132175-.0665217-.0533044-.1478261-.0891303-.0813043-.0359132-.1556522-.0752175-.1652174-.0873916-.0095652-.0121737-.0760869-.0431303-.1478261-.0687825-.0717391-.0256522-.1304348-.0567825-.1304348-.0692175 0-.0123478-.0665217-.0518259-.147826-.0876522-.0813044-.0359128-.1556522-.073739-.1652174-.0840869-.0170435-.0185215-.4044348-.2252175-.6782609-.361913-.0765217-.0381739-.1469565-.0780869-.1565217-.0887826-.0095653-.0106087-.1426088-.081913-.2956522-.1584348-.1530435-.0765217-.2834783-.1508695-.2898261-.1652173-.0064348-.0143479-.0316522-.026087-.056087-.026087-.0243478 0-.0996521-.0374783-.1672174-.0833044-.0674782-.045826-.1792173-.103826-.2482608-.1287825-.0690435-.0249566-.1255653-.0566957-.1255653-.0704348 0-.0138261-.0586956-.044174-.1304347-.0675652-.07173916-.0233044-.14139131-.0608696-.15478263-.0834783-.01347828-.0226087-.08782609-.062087-.1652174-.0876522-.07747825-.0255652-.14086956-.0583478-.14086956-.0729565s-.0547826-.0446087-.12173913-.0666957c-.06695653-.0220869-.12173912-.0513913-.12173912-.0651304s-.07043479-.054-.15652175-.0894783c-.08608694-.0355652-.15652172-.0753913-.15652172-.0885217 0-.0132174-.06260872-.0446957-.13913044-.069913-.07652175-.0252174-.13913044-.0552174-.13913044-.0666087s-.05086956-.0425218-.1130435-.0691305c-.0621739-.0265217-.13652172-.0675652-.16521737-.0911304-.02869566-.0235652-.11086957-.0635652-.18260869-.0888696-.07173916-.0253043-.13043478-.0586087-.13043478-.0738261 0-.0153043-.02139131-.0278261-.04747828-.0278261-.02608694 0-.08660869-.0307825-.13443478-.0684347-.04791304-.0376522-.0969565-.0585218-.10904347-.0463478-.01217391.0120869-.02208697.0049565-.02208697-.0158261 0-.0208696-.05869566-.0570435-.13043478-.0804348-.07173913-.0233913-.13826088-.0541739-.1478261-.0683479-.00956518-.0141739-.0721739-.051826-.1391304-.0834782-.06695653-.0317391-.26260872-.1347826-.43478263-.2289565-.1721739-.094087-.37173912-.1974783-.44347825-.2297392-.07173912-.0321739-.13043478-.0693043-.13043478-.0825217 0-.0131304-.06260872-.0446087-.13913044-.0698261-.07652175-.0252174-.13913043-.0552174-.13913043-.0666087s-.05086957-.0425217-.11304347-.0691304c-.06217394-.0265218-.13652175-.0669565-.16521741-.0896522-.02869566-.0227826-.10695653-.0628696-.17391303-.0891304-.06695653-.0262609-.14243478-.068-.16773916-.0926957-.02521737-.0246956-.06634781-.0449565-.09139128-.0449565-.02495653 0-.0641739-.0226956-.0872174-.0503478-.0229565-.0276522-.11486957-.078-.20426088-.1119131-.08930434-.0338261-.17808694-.0746087-.19721737-.0906087-.03721741-.0311304-.10721741-.0689565-.52956522-.2862608-.14878263-.0765218-.27826088-.1483479-.2878261-.1595652-.00956522-.0113044-.08391303-.0495653-.16521737-.0850435-.08130438-.0353913-.1478261-.0746087-.1478261-.0869565 0-.0123479-.06260868-.0432175-.13913043-.0684348-.07652175-.0252174-.13913044-.0566957-.13913044-.0699131 0-.0131304-.07043478-.0529565-.15652174-.0885217-.08608696-.0354783-.15652174-.0763479-.15652174-.0907826 0-.0144348-.0626087-.0450435-.13913043-.0679131-.07652174-.0229565-.13913044-.0527826-.13913044-.0662608 0-.0134783-.07434783-.0526087-.16521739-.0868696s-.17773913-.0833043-.19304348-.1090435c-.01530435-.0257391-.0493913-.0467826-.07573913-.0467826-.02643478 0-.06869565-.0202609-.09391304-.0449565-.02530435-.0246957-.10078261-.0668696-.16773913-.0936522s-.12956522-.0574783-.13913044-.068087c-.00956522-.0106956-.15826087-.0897391-.33043478-.1756521-.17217391-.086-.32086956-.1659131-.33043478-.1775652-.00956522-.0117392-.07608696-.0404348-.14782609-.0638261s-.13043478-.0537391-.13043478-.0674783c0-.0137391-.07043479-.054-.15652174-.0894783-.08608696-.0355652-.15652174-.0753913-.15652174-.0885217 0-.0132174-.0626087-.0446956-.13913043-.069913-.07652174-.0252174-.13913044-.0572174-.13913044-.0710435s-.0273913-.0330435-.06086956-.0426957c-.03347826-.0096521-.08826087-.0287826-.12173913-.0425217-.05765218-.0238261-.06086957.126-.06086957 2.8609565v2.886087l.13086957.0866087c.072.0476521.16591304.0977391.20869565.1113043.04278261.0135651.07782608.0363479.07782608.0506089 0 .0142606.05478261.0474781.12173913.073739.06695653.026261.12173914.0583478.12173914.0713044s.07043478.0505216.15652173.0833913c.08608696.0328693.15652174.0734781.15652174.0902609 0 .0167825.0626087.0493044.13913044.0721737.07652174.0229566.13913043.0538263.13913043.0686088s.11347826.0846087.25217391.1551303c.13869566.0705219.26.1381741.26956522.1501741.00956522.0120868.07217392.049739.13913044.0835653.06695652.0339128.18434782.0992172.26086956.1451303.13478261.0809566.322.1838259.57391305.3155653.06695652.0349566.12956521.0739128.13913043.0865216.00956522.0126087.06826087.0450434.13043478.0720868.06217392.0270438.11304348.0588697.11304348.070696 0 .0119128.07043478.0485215.15652175.0813912.08608694.0328694.15652172.0740869.15652172.0916522 0 .017565.02078262.0319128.04617394.0319128.02547825 0 .11547825.0457394.2.1016522.08460868.0559131.19686956.112435.24947825.1254785.05260868.0131303.09565215.0367825.09565215.0525215 0 .0158263.03121741.0386088.06939132.0506956.03808696.0120872.08895653.0406088.1130435.0632175.024.0226957.1049565.0725219.17991303.1107825.30956522.1580872.38086956.1991307.428.2461741.02713043.0272175.07060868.0494781.09660868.0494781s.06791307.0206088.09313044.0459132c.02530435.0252175.11252175.0751306.1938261.1110434.08130434.0358262.14782609.0748697.14782609.0866956 0 .0119131.05478259.0431306.12173912.0693916.06695654.0262606.12173913.0583478.12173913.071304 0 .0129566.07043478.0505219.15652175.0833916.08608694.0328694.15652172.0717391.15652172.0863478 0 .0146956.05869565.0528694.13043478.0849566.16826087.0751303.63.3300869.66956522.3696522.00956522.009565.07869565.0486956.15365219.0869562.30956521.1580872.38086956.1991306.428.2461741.02713043.0272175.07060868.0494781.09660868.0494781s.06791307.0206088.09313044.0459131c.02530434.0252175.11252175.0751303.19382609.1110435.08130435.0358262.1478261.0748697.1478261.0866956 0 .0119131.05478259.0431306.12173912.0693912.0669565.026261.12173913.0583482.12173913.0713044 0 .0129566.07043478.0505219.15652175.0833916.08608694.0328694.15652172.071739.15652172.0863478 0 .0146956.05869565.0528694.13043478.0849562.16826087.0751307.63.3300872.66956522.3696522.00956522.0095653.08.0485219.15652175.0866088.07652175.0380872.14695653.0775653.15652175.0876522.00956522.010174.05652172.0373912.10434781.0606087s.1808696.0973044.2956522.1646956c.1147826.0673913.2517391.1396522.3043478.1605219.0526087.0209566.0956522.0492172.0956522.0628694 0 .0137394.0547826.046435.1217391.0726956.0669565.026261.1217391.0583478.1217391.0713044s.0704348.0505219.1565218.0833912c.0860869.0328697.1565217.0717394.1565217.0863482 0 .0146956.0586957.0531303.1304348.0854781.1618261.0730434.3625217.1817391.4086956.2213912.0191305.0164347.0856522.0523479.1478261.0799132.0621739.0274781.1130435.0594781.1130435.0710434 0 .0116522.0704348.0500869.1565218.0856522.0860869.0354781.1565217.0769566.1565217.0921737 0 .0152175.0198261.0276522.0440869.0276522.0242609 0 .0986087.0368697.1652174.0819132.0666087.0450434.1798261.1029565.2515653.1286956.0717391.025739.1304347.060174.1304347.076435 0 .0162606.0469565.046.1043479.066.0573913.02.1043478.047565.1043478.0612172 0 .013739.0547826.046435.1217391.0726956.0669565.0262609.1217392.0583478.1217392.0713044 0 .0129565.0704347.0505218.1565217.0833912.0860869.0328697.1565217.0717394.1565217.0863478 0 .014696.0586957.0531307.1304348.0854785.1532174.0691303.3593043.179739.4086957.2194781.0381739.0306087.2441739.1452175.4347826.2418262.0669565.0339132.1424348.081826.1677391.1065216.0252174.0246088.0661739.0447828.0909565.0447828.0246957 0 .0822609.0284347.1279131.0632172.0456521.0347828.1377391.0846956.2046956.1109566.0669565.0263478.1342609.0683478.1495652.0933912.0153044.0249566.0493913.0454785.0757392.0454785.0264348 0 .0686956.0201737.093913.0447825.0253043.0246956.1086087.0739131.1851304.1094784.0765218.035565.1469566.0746084.1565218.0866084.1113913.1403478.4964348.1670438.6203478.0431307.0330435-.0330435.1326957-.0877391.2214783-.1216522.0887826-.0339132.1801739-.0843478.2031304-.112.0230435-.0276522.0622609-.0503478.0872174-.0503478.0250435 0 .0661739-.0206088.0913913-.0459132.0253044-.0252175.1125217-.0751303.1938261-.1110434.0813043-.0358263.1478261-.0760869.1478261-.0894781 0-.0133044.038-.0338263.0845217-.0454785.0465218-.0116522.1057391-.0425215.1317391-.0684347.026-.026.1171305-.0813043.2024348-.1228696.2148696-.1046088.3606957-.1846088.3813044-.2091304.0095652-.0113912.1254782-.0754784.2574782-.142435.132087-.0669562.258-.1373912.2797392-.1565215.0218261-.0191303.1638261-.0973913.3156521-.1739131.1517392-.0765216.2970435-.1586957.3226957-.1826088.0257391-.0239128.0683478-.0434781.0947826-.0434781.0263478 0 .0604348-.0205219.0757391-.0454785.0153044-.0250434.0826087-.067565.1495653-.0944346.0669565-.0268694.1747825-.0846088.2396521-.1283479.0648696-.043739.1392174-.0795653.1652174-.0795653s.0473044-.0140868.0473044-.031304c0-.0173044.0703478-.0603482.1564347-.0956522.086-.0353916.1564348-.0760872.1565218-.090435 0-.0143478.0235652-.0260869.0522609-.0260869.0286956 0 .0811304-.0289566.1165217-.0643478.0353913-.0353913.1143478-.0817391.1754783-.1030434.0610434-.0213044.155826-.0706088.2105217-.1095654.0547826-.0389565.1155652-.0708693.1351304-.0708693.0196522 0 .0563479-.0198263.0815652-.0440872.0253044-.024261.1125218-.073565.1938261-.1096522.0813044-.036.1478261-.0771303.1478261-.0912172 0-.0141741.038-.0353044.0845217-.0469566.0465218-.0116521.1057392-.0425218.1317392-.068435.026-.026.1171304-.081304.2024348-.1228693.2240869-.1090435.3613913-.1850435.3813043-.2110435.0095652-.0125218.0682609-.0433043.1304348-.068435.0621739-.0251303.1130435-.0569562.1130435-.0707825 0-.013739.0646956-.0462609.1437391-.0723478s.1612174-.0646956.1826087-.0858259c.054-.0533044.6735652-.3996522.7147826-.3996522.0185218 0 .0461739-.0205219.0614783-.0454784.0153043-.0250435.0826087-.0675654.1495652-.0944347.0669565-.0268697.1747826-.0846088.2396522-.1283478.0648695-.0437391.1392173-.0795654.1652173-.0795654s.0473044-.0123478.0473044-.0275653c0-.0151303.0508696-.0521737.1130435-.0822606.3050435-.1478262.4086956-.2073916.4086956-.2350434 0-.0166088.0430435-.040696.0956522-.0534785s.1506087-.0592175.2178261-.1031303c.0672174-.044.1572174-.0910434.2-.1046087s.0778261-.0375653.0778261-.0533913c0-.0157394.038-.038174.0845217-.0498262.0465218-.0116522.1057392-.0425216.1317392-.0684347.026-.026.1171304-.0813044.2024347-.1228697.2287826-.1113044.3616522-.1853044.3813044-.2121738.0095652-.0131306.083913-.0528696.1652174-.0883478.0813043-.0353912.1478261-.0758262.1478261-.089739 0-.0139132.048-.0359132.1066956-.0487828.0586957-.0128694.1151305-.0453913.1254783-.0723479.0102608-.0268693.0374782-.0488693.0603478-.0488693.0229565 0 .1129565-.0452175.2-.100435.0871304-.0552172.1958261-.1120869.2416522-.1264347.0457391-.014261.0910435-.0368697.1006087-.0500869.0095652-.0133044.0721739-.0526087.1391304-.0874784.0669565-.0347825.1804348-.0939132.2521739-.1313044.0717392-.0374781.1304348-.079565.1304348-.0936522 0-.0140869.0626087-.0462606.1391304-.0714781.0765218-.0252175.1391305-.0574785.1391305-.0716522 0-.0141741.0703478-.0547825.1564348-.0900869.086-.0353912.1564347-.0760872.1565217-.090435 0-.0143478.0235652-.0260869.0522609-.0260869.0286956 0 .08-.0278259.1140869-.0619131.034087-.0340869.1346087-.0896522.2233913-.123565.0887826-.0339131.1801739-.0843478.2031304-.112.0230435-.0276522.0622609-.0503478.0872175-.0503478.0250434 0 .0661739-.0201741.0913913-.0447828.0253043-.0246956.1086087-.0739128.1851304-.1094781s.1469565-.0741741.1565217-.0856522c.0216522-.0260869.1726957-.1127825.4-.2295653.2784348-.1430435.3813913-.2006088.4-.223826.0095652-.0119131.0839131-.0509565.1652174-.0868697.0813044-.0358259.1478261-.0772175.1478261-.0919131s.048-.0373044.1066956-.0501737c.0586957-.0128697.1151305-.0453913.1254783-.0723478.0102609-.0268697.0374783-.0488697.0603478-.0488697.0229566 0 .1153044-.0466957.2053044-.1037391s.2026087-.1135653.2502609-.1255653c.0476521-.0119128.0866957-.0341738.0866957-.0493044 0-.0152172.0469566-.044.1043478-.064.0573913-.02.1043478-.049739.1043478-.066 0-.0162606.0565216-.05.125565-.0749564.0690438-.0249565.1807828-.0829565.248261-.1287826.0675653-.0458261.144174-.0833043.170174-.0833043s.0473044-.0123479.0473044-.0274783c0-.0150435.1173913-.0862609.2608694-.1581739.1434784-.071913.2608697-.1456522.2608697-.1638261 0-.0182609.013739-.0331304.0305215-.0331304.0476522 0 .2511307-.0956522.404261-.190087.0765218-.0472174.2134784-.1195652.3043478-.1608695.0908697-.0412175.1652175-.0855653.1652175-.0985218s.0547825-.0433043.121739-.0675652c.0669566-.0241739.1217391-.0573913.1217391-.0738261s.0547828-.047913.1217394-.07c.0669562-.0220869.121739-.0513913.121739-.0651304 0-.0137392.0704347-.054.1565216-.0894783.0860872-.0355652.1565219-.0766087.1565219-.0913043 0-.0147827.048-.0373914.1066956-.0502609.0586956-.0128696.1148697-.0446957.1247825-.0706087.01-.026.0715653-.0648696.1367828-.0864348l.1186956-.0391304v-3.2668696c0-2.5913913-.0089565-3.2664348-.0434784-3.2647886-.0239128.0011364-.1530434.0637451-.2869562.1392234"/></g></g></svg>